<?xml version="1.0" encoding="UTF-8"?>
<svg id="Layer_1" data-name="Layer 1" xmlns="http://www.w3.org/2000/svg" xmlns:xlink="http://www.w3.org/1999/xlink" viewBox="0 0 1928.57 600">
  <defs>
    <style>
      .cls-1 {
        fill: none;
      }

      .cls-2 {
        fill: #2039e5;
      }

      .cls-3 {
        clip-path: url(#clippath);
      }
    </style>
    <clipPath id="clippath">
      <rect class="cls-1" width="1928.57" height="600"/>
    </clipPath>
  </defs>
  <g class="cls-3">
    <rect class="cls-2" x="128.54" y="128.54" width="85.71" height="342.86" rx="42.86" ry="42.86"/>
    <rect class="cls-2" x="257.11" y="171.4" width="85.71" height="192.86" rx="42.86" ry="42.86"/>
    <rect class="cls-2" x="385.71" y="385.71" width="85.71" height="85.71" rx="42.86" ry="42.86"/>
    <path class="cls-2" d="M600.65,439.21v-199.82h29.12v30.2l-3.51-7.01c5.39-8.27,12.58-14.74,21.57-19.42,8.99-4.67,19.23-7.01,30.74-7.01,13.84,0,26.29,3.33,37.35,9.98,11.06,6.65,19.77,15.73,26.16,27.24,6.38,11.51,9.57,24.45,9.57,38.83s-3.19,27.33-9.57,38.83c-6.38,11.51-15.06,20.63-26.02,27.37-10.97,6.74-23.46,10.11-37.48,10.11-11.33,0-21.62-2.34-30.88-7.01-9.26-4.67-16.41-11.41-21.44-20.22l4.85-5.66v83.59h-30.47ZM675.62,360.2c8.63,0,16.27-2.06,22.92-6.2,6.65-4.13,11.91-9.84,15.78-17.12,3.86-7.28,5.8-15.51,5.8-24.67s-1.93-17.35-5.8-24.54c-3.87-7.19-9.13-12.85-15.78-16.99-6.65-4.13-14.29-6.2-22.92-6.2s-16.05,2.07-22.79,6.2c-6.74,4.14-12.05,9.8-15.91,16.99-3.87,7.19-5.8,15.37-5.8,24.54s1.93,17.39,5.8,24.67c3.86,7.28,9.17,12.99,15.91,17.12,6.74,4.14,14.33,6.2,22.79,6.2ZM774.59,385.28v-145.89h29.12v29.39l-2.7-4.31c3.24-9.53,8.45-16.4,15.64-20.63,7.19-4.22,15.82-6.34,25.89-6.34h8.9v27.78h-12.67c-10.07,0-18.2,3.1-24.4,9.3-6.2,6.2-9.3,15.06-9.3,26.56v84.13h-30.47ZM935.84,388.52c-14.02,0-26.83-3.32-38.43-9.98-11.6-6.65-20.81-15.73-27.64-27.24-6.83-11.5-10.25-24.54-10.25-39.1s3.41-27.82,10.25-39.24c6.83-11.41,16-20.4,27.51-26.97,11.5-6.56,24.36-9.84,38.56-9.84s27.28,3.28,38.7,9.84c11.41,6.56,20.49,15.55,27.24,26.97,6.74,11.42,10.11,24.5,10.11,39.24s-3.42,27.87-10.25,39.37c-6.83,11.51-16,20.54-27.51,27.1-11.51,6.56-24.27,9.84-38.29,9.84ZM935.84,360.2c8.63,0,16.27-2.06,22.92-6.2,6.65-4.13,11.91-9.84,15.78-17.12,3.86-7.28,5.8-15.51,5.8-24.67s-1.93-17.35-5.8-24.54c-3.87-7.19-9.13-12.85-15.78-16.99-6.65-4.13-14.29-6.2-22.92-6.2s-16.04,2.07-22.79,6.2c-6.74,4.14-12.05,9.8-15.91,16.99-3.87,7.19-5.8,15.37-5.8,24.54s1.93,17.39,5.8,24.67c3.86,7.28,9.17,12.99,15.91,17.12,6.74,4.14,14.33,6.2,22.79,6.2ZM1034.81,385.28v-145.89h29.12v31.55l-3.78-4.85c3.05-9.88,8.63-17.35,16.72-22.38,8.09-5.03,17.35-7.55,27.78-7.55,11.68,0,22.07,3.1,31.15,9.3,9.08,6.2,15.14,14.43,18.2,24.67l-8.63.81c4.31-11.68,10.92-20.4,19.82-26.16,8.9-5.75,19.1-8.63,30.61-8.63,10.07,0,19.19,2.34,27.37,7.01,8.18,4.68,14.7,11.15,19.55,19.42,4.85,8.27,7.28,17.71,7.28,28.32v94.38h-30.47v-86.02c0-7.37-1.31-13.62-3.91-18.74-2.61-5.12-6.2-9.08-10.79-11.87-4.58-2.78-9.94-4.18-16.04-4.18s-11.51,1.39-16.18,4.18c-4.68,2.79-8.36,6.79-11.06,12-2.7,5.22-4.05,11.42-4.05,18.61v86.02h-30.2v-86.02c0-7.37-1.31-13.62-3.91-18.74-2.61-5.12-6.2-9.08-10.79-11.87-4.58-2.78-10.02-4.18-16.31-4.18s-11.51,1.39-16.18,4.18c-4.68,2.79-8.32,6.79-10.92,12-2.61,5.22-3.91,11.42-3.91,18.61v86.02h-30.47ZM1275.89,439.21v-199.82h29.12v30.2l-3.51-7.01c5.39-8.27,12.58-14.74,21.57-19.42,8.99-4.67,19.23-7.01,30.74-7.01,13.84,0,26.29,3.33,37.35,9.98,11.06,6.65,19.77,15.73,26.16,27.24,6.38,11.51,9.57,24.45,9.57,38.83s-3.19,27.33-9.57,38.83c-6.38,11.51-15.06,20.63-26.02,27.37-10.97,6.74-23.46,10.11-37.48,10.11-11.33,0-21.62-2.34-30.88-7.01-9.26-4.67-16.41-11.41-21.44-20.22l4.85-5.66v83.59h-30.47ZM1350.85,360.2c8.63,0,16.27-2.06,22.92-6.2,6.65-4.13,11.91-9.84,15.78-17.12,3.86-7.28,5.8-15.51,5.8-24.67s-1.93-17.35-5.8-24.54c-3.87-7.19-9.13-12.85-15.78-16.99-6.65-4.13-14.29-6.2-22.92-6.2s-16.05,2.07-22.79,6.2c-6.74,4.14-12.05,9.8-15.91,16.99-3.87,7.19-5.8,15.37-5.8,24.54s1.93,17.39,5.8,24.67c3.86,7.28,9.17,12.99,15.91,17.12,6.74,4.14,14.33,6.2,22.79,6.2ZM1510.22,386.9c-15.28,0-27.15-4.32-35.6-12.94-8.45-8.63-12.67-20.76-12.67-36.4v-70.65h-25.62v-27.51h4.05c6.83,0,12.13-1.98,15.91-5.93,3.78-3.95,5.66-9.35,5.66-16.18v-11.33h30.47v33.44h33.17v27.51h-33.17v69.3c0,5.04.81,9.3,2.43,12.81s4.22,6.2,7.82,8.09c3.59,1.89,8.27,2.83,14.02,2.83,1.44,0,3.05-.09,4.85-.27,1.8-.18,3.51-.36,5.12-.54v26.16c-2.52.36-5.3.72-8.36,1.08-3.06.36-5.76.54-8.09.54ZM1598.67,385.28v-200.9h84.4c11.33,0,21.17,2.12,29.53,6.34,8.36,4.23,14.83,10.11,19.42,17.66,4.58,7.55,6.88,16.36,6.88,26.43s-2.56,19.64-7.69,27.64c-5.12,8-12.45,14.07-21.98,18.2l-.27-6.47c7.91,2.88,14.7,6.92,20.36,12.13,5.66,5.22,10.02,11.28,13.08,18.2,3.05,6.92,4.58,14.34,4.58,22.25,0,17.98-5.71,32.22-17.12,42.74-11.42,10.52-26.92,15.78-46.52,15.78h-84.67ZM1620.25,269.32h61.21c10.79,0,19.46-3.14,26.02-9.44,6.56-6.29,9.84-14.38,9.84-24.27s-3.28-17.75-9.84-23.06c-6.56-5.3-15.24-7.95-26.02-7.95h-61.21v64.72ZM1620.25,365.05h63.1c12.76,0,22.96-3.37,30.61-10.11,7.64-6.74,11.46-16.04,11.46-27.91s-3.82-20.99-11.46-27.91c-7.64-6.92-17.84-10.38-30.61-10.38h-63.1v76.31ZM1778.81,385.28v-200.9h21.57v200.9h-21.57Z"/>
  </g>
</svg>